<svg width="24" height="15" viewBox="0 0 24 15" fill="none" xmlns="http://www.w3.org/2000/svg">
<path d="M23.535 9.18545H17.6959C17.4585 6.37315 14.9947 4.1542 12 4.1542C9.00526 4.1542 6.54143 6.37315 6.30401 9.18545H0.46492C0.20816 9.18545 0 9.38494 0 9.631C0 9.87706 0.20816 10.0766 0.46492 10.0766H6.74996H17.25H23.5351C23.7918 10.0766 24 9.87706 24 9.631C23.9999 9.38494 23.7918 9.18545 23.535 9.18545ZM7.23726 9.18545C7.47183 6.86515 9.51828 5.0453 12 5.0453C14.4816 5.0453 16.5281 6.86521 16.7627 9.18545H7.23726Z" fill="white"/>
<path d="M21.1175 11.4208H2.88237C2.62561 11.4208 2.41745 11.6203 2.41745 11.8663C2.41745 12.1124 2.62561 12.3119 2.88237 12.3119H21.1175C21.3744 12.3119 21.5825 12.1124 21.5825 11.8663C21.5825 11.6203 21.3744 11.4208 21.1175 11.4208Z" fill="white"/>
<path d="M18.6071 13.6562H5.39284C5.13608 13.6562 4.92792 13.8557 4.92792 14.1018C4.92792 14.3478 5.13608 14.5473 5.39284 14.5473H18.6071C18.8639 14.5473 19.072 14.3478 19.072 14.1018C19.072 13.8557 18.8639 13.6562 18.6071 13.6562Z" fill="white"/>
<path d="M11.9998 3.06658C12.2565 3.06658 12.4646 2.8671 12.4646 2.62103V0.898246C12.4646 0.652185 12.2565 0.452698 11.9998 0.452698C11.743 0.452698 11.5349 0.652185 11.5349 0.898246V2.62103C11.5349 2.8671 11.743 3.06658 11.9998 3.06658Z" fill="white"/>
<path d="M8.49924 3.45974C8.57797 3.62227 8.74583 3.71786 8.92126 3.71786C8.98679 3.71786 9.0533 3.70449 9.11665 3.67633C9.34955 3.57279 9.45078 3.30784 9.34267 3.08465L8.58602 1.5219C8.47791 1.29871 8.2015 1.20164 7.96861 1.3053C7.73572 1.40885 7.63449 1.6738 7.7426 1.89699L8.49924 3.45974Z" fill="white"/>
<path d="M4.74131 4.33265L6.11406 5.44504C6.2014 5.51579 6.30796 5.55037 6.41403 5.55037C6.54613 5.55037 6.67736 5.49672 6.76929 5.39247C6.93505 5.20456 6.9105 4.92345 6.71443 4.7646L5.34167 3.65221C5.14566 3.4933 4.85227 3.51682 4.68651 3.70479C4.52069 3.89263 4.54523 4.1738 4.74131 4.33265Z" fill="white"/>
<path d="M3.08862 7.75275L4.8224 8.20804C4.8635 8.21885 4.90485 8.22396 4.94551 8.22396C5.14977 8.22396 5.33704 8.09398 5.39364 7.89604C5.46152 7.65871 5.31578 7.41359 5.06813 7.3486L3.33435 6.89331C3.08682 6.82844 2.83093 6.96792 2.76312 7.20525C2.69524 7.44258 2.84097 7.6877 3.08862 7.75275Z" fill="white"/>
<path d="M14.8828 3.67633C14.9462 3.70449 15.0128 3.71786 15.0782 3.71786C15.2537 3.71786 15.4216 3.62227 15.5003 3.45974L16.257 1.89699C16.365 1.6738 16.2638 1.40885 16.0309 1.3053C15.7977 1.20164 15.5215 1.29871 15.4134 1.5219L14.6568 3.08465C14.5487 3.3079 14.65 3.57279 14.8828 3.67633Z" fill="white"/>
<path d="M17.5856 5.55037C17.6916 5.55037 17.7983 5.51579 17.8855 5.44504L19.2583 4.33265C19.4544 4.1738 19.4789 3.89263 19.3132 3.70473C19.1473 3.51689 18.8541 3.4933 18.6579 3.65221L17.2852 4.7646C17.0891 4.92345 17.0645 5.20462 17.2303 5.39253C17.3223 5.49672 17.4535 5.55037 17.5856 5.55037Z" fill="white"/>
<path d="M18.6059 7.89604C18.6625 8.09392 18.8497 8.22396 19.054 8.22396C19.0946 8.22396 19.1359 8.21879 19.1771 8.20804L20.9109 7.75275C21.1585 7.6877 21.3043 7.44258 21.2364 7.20531C21.1686 6.96804 20.9135 6.82832 20.6651 6.89337L18.9313 7.34866C18.6837 7.41365 18.538 7.65876 18.6059 7.89604Z" fill="white"/>
</svg>
