<svg width="16" height="16" viewBox="0 0 16 16" fill="none" xmlns="http://www.w3.org/2000/svg">
<path d="M15.7402 10.0053C15.4923 9.80746 15.143 9.80365 14.8908 9.99621C13.7784 10.846 12.4489 11.2952 11.0458 11.2952C10.664 11.2952 10.2813 11.2608 9.90826 11.1931C9.75948 11.1659 9.6171 11.2646 9.5901 11.4134C9.56307 11.5621 9.66173 11.7046 9.81045 11.7316C10.2156 11.8052 10.6313 11.8425 11.0458 11.8425C12.5699 11.8425 14.0144 11.3545 15.223 10.4312C15.2752 10.3913 15.3474 10.3921 15.3987 10.433C15.45 10.474 15.4667 10.5442 15.4394 10.6039C14.8435 11.9068 13.8935 13.0116 12.6921 13.7989C11.4591 14.6067 10.0249 15.0338 8.54448 15.0338C4.36579 15.0338 0.966167 11.6341 0.966167 7.45546C0.966167 5.97499 1.3932 4.54077 2.20107 3.30787C2.98829 2.1064 4.09307 1.1564 5.39614 0.560463C5.45576 0.53315 5.52589 0.549932 5.56682 0.601244C5.60773 0.652525 5.60857 0.724775 5.56873 0.7769C4.64542 1.98565 4.15739 3.43012 4.15739 4.95418C4.15739 6.43012 4.61935 7.83843 5.49339 9.02693C6.34954 10.1911 7.52307 11.045 8.88714 11.4962C9.03073 11.5436 9.18542 11.4658 9.23292 11.3223C9.28035 11.1788 9.20251 11.024 9.05904 10.9766C6.45457 10.1151 4.70473 7.6949 4.70473 4.95421C4.70473 3.55124 5.15392 2.22165 6.0037 1.10915C6.19629 0.857025 6.19251 0.507775 5.99457 0.259807C5.79654 0.0116817 5.4566 -0.0691621 5.16835 0.0628067C3.77151 0.701619 2.5871 1.72006 1.74326 3.00787C0.876792 4.33015 0.418823 5.86812 0.418823 7.45546C0.418823 11.936 4.06401 15.5811 8.54448 15.5811C10.1317 15.5811 11.6697 15.1231 12.9921 14.2567C14.2799 13.4128 15.2984 12.2285 15.9373 10.8316C16.0692 10.5431 15.9882 10.2033 15.7402 10.0053Z" fill="white"/>
<path d="M7.85795 4.91821C8.50454 4.91821 9.03063 5.44428 9.03063 6.09087C9.03063 6.24199 9.15316 6.36453 9.30429 6.36453C9.45541 6.36453 9.57794 6.24199 9.57794 6.09087C9.57794 5.44428 10.104 4.91821 10.7506 4.91821C10.9017 4.91821 11.0243 4.79568 11.0243 4.64456C11.0243 4.49343 10.9017 4.3709 10.7506 4.3709C10.104 4.3709 9.57794 3.84481 9.57794 3.19821C9.57794 3.04709 9.45541 2.92456 9.30429 2.92456C9.15316 2.92456 9.03063 3.04709 9.03063 3.19821C9.03063 3.84481 8.50454 4.3709 7.85795 4.3709C7.70682 4.3709 7.58429 4.49343 7.58429 4.64456C7.58429 4.79568 7.70682 4.91821 7.85795 4.91821ZM9.30429 4.12818C9.43763 4.33487 9.61395 4.51118 9.82063 4.64456C9.61395 4.7779 9.43766 4.95421 9.30429 5.1609C9.17095 4.95421 8.9946 4.77793 8.78791 4.64456C8.9946 4.51121 9.17095 4.33487 9.30429 4.12818Z" fill="white"/>
<path d="M11.7314 8.43731C12.2008 8.43731 12.5828 8.0554 12.5828 7.586C12.5828 7.11656 12.2008 6.73462 11.7314 6.73462C11.2619 6.73462 10.88 7.11656 10.88 7.586C10.8801 8.0554 11.262 8.43731 11.7314 8.43731ZM11.7314 7.282C11.899 7.282 12.0354 7.41837 12.0354 7.58603C12.0354 7.75362 11.899 7.89 11.7314 7.89C11.5637 7.89 11.4274 7.75365 11.4274 7.58603C11.4274 7.41837 11.5638 7.282 11.7314 7.282Z" fill="white"/>
<path d="M1.26409 13.4396C0.794657 13.4396 0.41275 13.8215 0.41275 14.2909C0.41275 14.7603 0.794657 15.1423 1.26409 15.1423C1.73353 15.1423 2.11544 14.7603 2.11544 14.2909C2.11544 13.8215 1.73353 13.4396 1.26409 13.4396ZM1.26409 14.5949C1.09647 14.5949 0.960094 14.4585 0.960094 14.2909C0.960094 14.1232 1.09647 13.9869 1.26409 13.9869C1.43172 13.9869 1.56809 14.1232 1.56809 14.2909C1.56809 14.4585 1.43175 14.5949 1.26409 14.5949Z" fill="white"/>
<path d="M9.30424 8.2724C9.49373 8.2724 9.64734 8.11879 9.64734 7.92931C9.64734 7.73982 9.49373 7.58621 9.30424 7.58621C9.11476 7.58621 8.96115 7.73982 8.96115 7.92931C8.96115 8.11879 9.11476 8.2724 9.30424 8.2724Z" fill="white"/>
<path d="M0.343094 12.3921C0.532579 12.3921 0.686188 12.2385 0.686188 12.049C0.686188 11.8595 0.532579 11.7059 0.343094 11.7059C0.153608 11.7059 0 11.8595 0 12.049C0 12.2385 0.153608 12.3921 0.343094 12.3921Z" fill="white"/>
<path d="M11.5045 2.96912C11.694 2.96912 11.8476 2.81551 11.8476 2.62603C11.8476 2.43654 11.694 2.28293 11.5045 2.28293C11.315 2.28293 11.1614 2.43654 11.1614 2.62603C11.1614 2.81551 11.315 2.96912 11.5045 2.96912Z" fill="white"/>
</svg>
