<svg width="18" height="18" viewBox="0 0 18 18" fill="none" xmlns="http://www.w3.org/2000/svg">
<path d="M17.381 8.38095H15.5476C15.2143 8.38095 14.9286 8.66667 14.9286 9C14.9286 9.33333 15.2143 9.61905 15.5476 9.61905H17.381C17.7143 9.61905 18 9.33333 18 9C18 8.66667 17.7143 8.38095 17.381 8.38095Z" fill="white"/>
<path d="M9 14.9286C8.66667 14.9286 8.38095 15.2143 8.38095 15.5476V17.381C8.38095 17.7143 8.66667 18 9 18C9.33333 18 9.61905 17.7143 9.61905 17.381V15.5476C9.61905 15.2143 9.33333 14.9286 9 14.9286Z" fill="white"/>
<path d="M15.3571 14.5L14.0476 13.1905C13.8333 12.9524 13.4286 12.9524 13.1905 13.1905C12.9524 13.4286 12.9524 13.8095 13.1905 14.0476L14.5 15.3571C14.7381 15.5952 15.119 15.5952 15.3571 15.3571C15.5952 15.119 15.5952 14.7381 15.3571 14.5Z" fill="white"/>
<path d="M9 0C8.66667 0 8.38095 0.285714 8.38095 0.619048V2.45238C8.38095 2.78571 8.66667 3.07143 9 3.07143C9.33333 3.07143 9.61905 2.78571 9.61905 2.45238V0.619048C9.61905 0.285714 9.33333 0 9 0Z" fill="white"/>
<path d="M15.381 2.64286C15.1429 2.40476 14.7619 2.40476 14.5238 2.64286L13.2143 3.95238C12.9762 4.19048 12.9762 4.57143 13.2143 4.80952C13.4286 5.04762 13.8333 5.04762 14.0714 4.80952L15.381 3.5C15.6191 3.26191 15.6191 2.88095 15.381 2.64286Z" fill="white"/>
<path d="M2.45238 8.38095H0.619048C0.285714 8.38095 0 8.66667 0 9C0 9.33333 0.261905 9.61905 0.619048 9.61905H2.45238C2.78571 9.61905 3.07143 9.33333 3.07143 9C3.07143 8.66667 2.78571 8.38095 2.45238 8.38095Z" fill="white"/>
<path d="M4.78571 13.1905C4.57143 12.9524 4.16667 12.9524 3.92857 13.1905L2.61905 14.5C2.38095 14.7381 2.38095 15.119 2.61905 15.3571C2.85714 15.5952 3.23809 15.5952 3.47619 15.3571L4.78571 14.0476C5.02381 13.8095 5.02381 13.4286 4.78571 13.1905Z" fill="white"/>
<path d="M4.78571 3.95238L3.47619 2.64286C3.23809 2.40476 2.85714 2.40476 2.61905 2.64286C2.38095 2.88095 2.38095 3.26191 2.61905 3.5L3.92857 4.80952C4.16667 5.04762 4.54762 5.04762 4.78571 4.80952C5.02381 4.57143 5.02381 4.19048 4.78571 3.95238Z" fill="white"/>
<path d="M12.1905 5.80952C11.381 5 10.2381 4.47619 9.00001 4.47619C7.76191 4.47619 6.61905 4.97619 5.80953 5.80952C5.00001 6.61905 4.4762 7.7619 4.4762 9C4.4762 10.2381 5.00001 11.381 5.80953 12.1905C6.61905 13 7.76191 13.5238 9.00001 13.5238C10.2381 13.5238 11.381 13.0238 12.1905 12.1905C13 11.381 13.5238 10.2381 13.5238 9C13.5238 7.7619 13.0238 6.61905 12.1905 5.80952ZM11.3333 11.3333C10.7381 11.9286 9.90477 12.2857 9.00001 12.2857C8.09524 12.2857 7.26191 11.9286 6.66667 11.3333C6.07143 10.7381 5.71429 9.90476 5.71429 9C5.71429 8.09524 6.07143 7.2619 6.66667 6.66667C7.26191 6.07143 8.09524 5.71428 9.00001 5.71428C9.90477 5.71428 10.7381 6.07143 11.3333 6.66667C11.9286 7.2619 12.2857 8.09524 12.2857 9C12.2857 9.90476 11.9286 10.7381 11.3333 11.3333Z" fill="white"/>
</svg>
